# xmcd
#
# Track frame offsets: 
#        150
#        22802
#        50892
#        87092
#        117842
#        145925
#
# Disc length: 2229 seconds
#
# Revision: 1
# Processed by: cddbd v1.5.2PL0 Copyright (c) Steve Scherf et al.
# Submitted via: ExactAudioCopy v0.95b4
#
DISCID=4808b306
DTITLE=Emily Remler - Transitions (with John D'Earth)
DYEAR=1984
DGENRE=Jazz
TTITLE0=Nunca Mais
TTITLE1=Searchin'
TTITLE2=Transitions
TTITLE3=Del Sasser
TTITLE4=Coral
TTITLE5=Ode To Mali
EXTD=YEAR: 1984
EXTT0=
EXTT1=
EXTT2=
EXTT3=
EXTT4=
EXTT5=
PLAYORDER=
